<svg xmlns="http://www.w3.org/2000/svg" width="301.929" height="156.146" viewBox="0 0 301.929 156.146">
  <g id="Group_50" data-name="Group 50" transform="translate(-213.575 -3859.854)">
    <path id="accenture-4" d="M77.988,9.921,85.7,7.054,77.988,4.02V0l13.2,5.328v3.28l-13.2,5.333ZM5.087,35.344C2.3,35.344,0,33.95,0,30.836V30.67c0-3.773,3.28-5.087,7.3-5.087H9.187v-.74c0-1.56-.654-2.46-2.294-2.46A2.039,2.039,0,0,0,4.6,24.35H.493C.82,20.9,3.527,19.264,7.134,19.264c3.688,0,6.394,1.56,6.394,5.414V35.012H9.348V33.205a5.042,5.042,0,0,1-4.261,2.139Zm4.1-5.494V28.376H7.467c-2.133,0-3.2.574-3.2,1.967v.166c0,1.067.654,1.806,2.133,1.806A2.5,2.5,0,0,0,9.187,29.85Zm14.1,5.494c-4.267,0-7.381-2.626-7.381-7.874v-.241c0-5.253,3.28-8.04,7.381-8.04,3.527,0,6.394,1.806,6.727,5.821h-4.1c-.247-1.474-1.067-2.46-2.541-2.46-1.806,0-3.114,1.474-3.114,4.508v.493c0,3.114,1.147,4.508,3.114,4.508a2.867,2.867,0,0,0,2.787-2.787H30.1C29.85,32.8,27.47,35.344,23.289,35.344Zm16.075,0c-4.267,0-7.381-2.626-7.381-7.874v-.241c0-5.247,3.28-8.035,7.381-8.035,3.527,0,6.394,1.806,6.727,5.821h-4.1c-.247-1.474-1.067-2.46-2.541-2.46-1.806,0-3.114,1.474-3.114,4.508v.493c0,3.114,1.147,4.508,3.114,4.508a2.867,2.867,0,0,0,2.787-2.787h3.934C45.924,32.8,43.545,35.344,39.364,35.344Zm16.155,0c-4.427,0-7.461-2.626-7.461-7.788v-.327c0-5.167,3.2-8.035,7.381-8.035,3.854,0,7.054,2.133,7.054,7.3v1.887H52.485c.166,2.787,1.394,3.854,3.2,3.854a2.768,2.768,0,0,0,2.868-1.967h4.02c-.574,2.862-2.953,5.076-7.054,5.076ZM52.485,25.5h5.821c-.08-2.294-1.147-3.28-2.868-3.28C54.045,22.308,52.812,23.043,52.485,25.5Zm12.628-5.9H69.46V21.9a4.941,4.941,0,0,1,4.674-2.626c2.787,0,4.674,1.721,4.674,5.414V35.017H74.461V25.342c0-1.806-.74-2.626-2.294-2.626a2.585,2.585,0,0,0-2.707,2.868v9.428H65.113Zm21.649-4.674V19.6h2.953v3.2H86.762v7.3c0,1.147.493,1.721,1.56,1.721a3.636,3.636,0,0,0,1.474-.247v3.361a8.36,8.36,0,0,1-2.46.327c-3.361,0-4.92-1.56-4.92-4.674V22.8h-1.8V19.6h1.806V16.729Zm19.189,20.089H101.6V32.723A4.77,4.77,0,0,1,97.1,35.349c-2.787,0-4.84-1.721-4.84-5.328V19.6H96.6v9.841c0,1.806.74,2.626,2.214,2.626a2.63,2.63,0,0,0,2.707-2.868V19.682h4.347V35.017Zm3.2-15.415H113.5v2.868a4.644,4.644,0,0,1,4.674-3.034V23.7c-2.953,0-4.674.9-4.674,3.446V35.1h-4.347Zm17.8,15.742c-4.427,0-7.461-2.626-7.461-7.788v-.327c0-5.167,3.2-8.035,7.381-8.035,3.854,0,7.054,2.133,7.054,7.3v1.887H123.912c.166,2.787,1.394,3.854,3.2,3.854a2.768,2.768,0,0,0,2.868-1.967H134c-.654,2.862-3.034,5.076-7.054,5.076ZM123.832,25.5h5.821c-.08-2.294-1.147-3.28-2.868-3.28C125.472,22.308,124.239,23.043,123.832,25.5Z" transform="translate(216 3864)" fill="#8989a2"/>
    <g id="react" transform="translate(447.246 3855.215)">
      <path id="Path_684" data-name="Path 684" d="M67.4,32.808q-1.013-.347-2.042-.643.171-.693.316-1.393c1.546-7.5.535-13.549-2.916-15.539-3.309-1.909-8.721.081-14.187,4.838q-.808.7-1.579,1.449-.517-.5-1.051-.971c-5.729-5.087-11.471-7.23-14.919-5.234-3.306,1.914-4.285,7.6-2.894,14.708q.208,1.056.469,2.1c-.812.231-1.6.477-2.348.738-6.716,2.341-11.005,6.011-11.005,9.818,0,3.932,4.6,7.875,11.6,10.266q.851.289,1.715.536-.281,1.125-.5,2.265c-1.327,6.988-.291,12.536,3.007,14.438,3.406,1.964,9.122-.055,14.688-4.92q.66-.577,1.324-1.22.835.806,1.715,1.565c5.391,4.639,10.716,6.513,14.011,4.606,3.4-1.97,4.508-7.93,3.072-15.182q-.164-.831-.38-1.7.6-.178,1.18-.368c7.272-2.409,12-6.3,12-10.289,0-3.82-4.427-7.515-11.279-9.873Z" transform="translate(-10.421 -9.875)" fill="#8989a2"/>
      <path id="Path_685" data-name="Path 685" d="M72.765,57.324c-.347.115-.7.226-1.065.333a63.6,63.6,0,0,0-3.212-8.036A63.577,63.577,0,0,0,71.575,41.7c.649.188,1.279.386,1.886.6,5.87,2.021,9.451,5.009,9.451,7.311,0,2.452-3.867,5.636-10.146,7.717ZM70.16,62.487a22.947,22.947,0,0,1,.3,8.372c-.378,2.037-1.138,3.394-2.077,3.938-2,1.157-6.275-.347-10.885-4.314q-.793-.682-1.6-1.454a63.683,63.683,0,0,0,5.317-6.752,63.261,63.261,0,0,0,8.592-1.324q.194.783.343,1.535ZM43.812,74.6c-1.953.69-3.509.709-4.449.167-2-1.154-2.833-5.609-1.7-11.585q.2-1.059.463-2.106a63.724,63.724,0,0,0,8.549,1.238,65.944,65.944,0,0,0,5.445,6.728q-.591.571-1.209,1.113a22.952,22.952,0,0,1-7.1,4.446Zm-9.15-17.288a22.957,22.957,0,0,1-7.4-3.93C25.69,52.031,24.9,50.693,24.9,49.607c0-2.31,3.444-5.256,9.188-7.259q1.081-.375,2.183-.687a64.992,64.992,0,0,0,3.092,8.012,65.98,65.98,0,0,0-3.13,8.126Q35.439,57.573,34.662,57.309ZM37.729,36.43c-1.192-6.093-.4-10.689,1.592-11.842,2.122-1.229,6.815.523,11.761,4.915.316.281.634.575.952.879a64.941,64.941,0,0,0-5.4,6.687,66.217,66.217,0,0,0-8.465,1.316q-.243-.972-.436-1.955Zm27.363,6.757q-.93-1.607-1.929-3.172c2.024.255,3.963.6,5.784,1.011a57.809,57.809,0,0,1-2.03,5.462q-.879-1.669-1.825-3.3ZM53.934,32.318a57.957,57.957,0,0,1,3.733,4.507q-3.747-.177-7.5,0c1.232-1.625,2.495-3.135,3.765-4.5ZM42.7,43.205q-.933,1.619-1.791,3.28C40.123,44.614,39.448,42.774,38.9,41c1.81-.405,3.74-.736,5.751-.987q-1.01,1.575-1.945,3.2Zm2,16.194a57.7,57.7,0,0,1-5.846-.94c.56-1.809,1.25-3.688,2.056-5.6q.861,1.662,1.8,3.282.957,1.652,1.992,3.258Zm9.3,7.689c-1.284-1.386-2.565-2.919-3.817-4.568q1.822.072,3.711.072,1.94,0,3.829-.085A57.629,57.629,0,0,1,54.009,67.089ZM66.943,52.762a57.554,57.554,0,0,1,2.13,5.58,57.512,57.512,0,0,1-5.918,1.009q1.006-1.594,1.948-3.228.957-1.66,1.84-3.361Zm-4.187,2.007q-1.441,2.5-3.043,4.91c-1.882.134-3.827.2-5.809.2s-3.894-.061-5.743-.181q-1.643-2.4-3.1-4.918-1.45-2.5-2.706-5.111,1.252-2.607,2.7-5.114h0q1.444-2.506,3.076-4.9c1.887-.143,3.821-.217,5.776-.217s3.9.075,5.787.219q1.614,2.385,3.056,4.88t2.735,5.09q-1.271,2.615-2.726,5.135Zm5.59-30.262c2.124,1.225,2.95,6.165,1.616,12.644q-.131.633-.285,1.261a64.919,64.919,0,0,0-8.482-1.34,63.661,63.661,0,0,0-5.362-6.692q.713-.687,1.459-1.338c4.683-4.076,9.06-5.685,11.055-4.535Z" transform="translate(-17.364 -16.802)" fill="#fff"/>
      <path id="Path_686" data-name="Path 686" d="M113.709,94.665a5.665,5.665,0,1,1-5.665,5.665,5.665,5.665,0,0,1,5.665-5.665" transform="translate(-77.169 -67.524)" fill="#8989a2"/>
    </g>
    <path id="airbnb" d="M398.514,450.226a2.649,2.649,0,1,1-2.649-2.648A2.643,2.643,0,0,1,398.514,450.226Zm-10.92,5.338v.652a5.088,5.088,0,0,0-3.952-1.631,8.069,8.069,0,0,0,0,16.135,4.947,4.947,0,0,0,3.952-1.671v.692a.557.557,0,0,0,.571.57h3.3V454.991h-3.3a.586.586,0,0,0-.571.572Zm0,9.819a4.047,4.047,0,0,1-3.3,1.671,4.405,4.405,0,1,1,0-8.8,4.159,4.159,0,0,1,3.3,1.671Zm6.316-10.39h3.911v15.32h-3.911V454.992Zm58.428-.408a5.091,5.091,0,0,0-3.953,1.631v-8.6h-3.911v22.695h3.3a.582.582,0,0,0,.57-.571v-.692a5.046,5.046,0,0,0,3.952,1.671,8.07,8.07,0,0,0,.042-16.136Zm-.652,12.428a3.989,3.989,0,0,1-3.3-1.671v-5.46a4.422,4.422,0,0,1,3.3-1.671,4.4,4.4,0,1,1,0,8.8Zm-9.249-5.785v9.127h-3.912v-8.679c0-2.526-.815-3.545-3.014-3.545a4.379,4.379,0,0,0-3.179,1.508v10.675h-3.91V454.993h3.1a.583.583,0,0,1,.571.571v.652a5.612,5.612,0,0,1,4.155-1.631,6.345,6.345,0,0,1,4.279,1.467c1.385,1.141,1.915,2.607,1.915,5.175Zm-23.511-6.642a5.09,5.09,0,0,0-3.952,1.631v-8.6h-3.911v22.695h3.3a.583.583,0,0,0,.571-.571v-.692a5.046,5.046,0,0,0,3.952,1.671,8.07,8.07,0,0,0,.041-16.136Zm-.652,12.428a3.988,3.988,0,0,1-3.3-1.671v-5.46a4.422,4.422,0,0,1,3.3-1.671,4.405,4.405,0,1,1,0,8.8Zm-10.593-12.428a6.221,6.221,0,0,1,1.793.2v3.626s-3.26-1.1-5.3,1.223v10.716h-3.912V454.992h3.3a.582.582,0,0,1,.57.571v.652A5.355,5.355,0,0,1,407.681,454.585Zm-40.622,14.343c-.2-.489-.407-1.018-.611-1.467-.326-.733-.652-1.426-.937-2.078l-.041-.041c-2.812-6.112-5.826-12.3-9-18.416l-.122-.245q-.5-.951-.977-1.915a11.727,11.727,0,0,0-1.467-2.241A6.581,6.581,0,0,0,348.725,440a6.838,6.838,0,0,0-5.215,2.445,13.972,13.972,0,0,0-1.467,2.241q-.477.963-.977,1.915l-.123.245c-3.137,6.111-6.193,12.3-9,18.416l-.041.081c-.285.653-.611,1.345-.937,2.078q-.305.673-.611,1.467a9.142,9.142,0,0,0-.489,4.4,8.659,8.659,0,0,0,5.3,6.764,8.363,8.363,0,0,0,3.3.652,9.2,9.2,0,0,0,1.06-.082,10.762,10.762,0,0,0,4.075-1.385A20.634,20.634,0,0,0,348.644,475a21.41,21.41,0,0,0,5.052,4.237,10.765,10.765,0,0,0,4.074,1.385,9.111,9.111,0,0,0,1.06.082,8.218,8.218,0,0,0,3.3-.652,8.644,8.644,0,0,0,5.3-6.764,7.72,7.72,0,0,0-.369-4.359Zm-18.375,2.119a20.092,20.092,0,0,1-4.115-7.578,6.571,6.571,0,0,1-.122-2.486,3.946,3.946,0,0,1,.652-1.712,4.327,4.327,0,0,1,3.586-1.793,4.173,4.173,0,0,1,3.586,1.793,3.964,3.964,0,0,1,.652,1.712,6.558,6.558,0,0,1-.122,2.486A20.747,20.747,0,0,1,348.684,471.046Zm16.256,1.915a6.055,6.055,0,0,1-3.707,4.768,6.17,6.17,0,0,1-3.1.407,8.024,8.024,0,0,1-3.1-1.059,19.038,19.038,0,0,1-4.645-3.953,22.984,22.984,0,0,0,4.93-9,10.194,10.194,0,0,0,.2-3.464,6.606,6.606,0,0,0-1.1-2.771,6.866,6.866,0,0,0-5.745-2.893,6.971,6.971,0,0,0-5.745,2.893,6.612,6.612,0,0,0-1.1,2.771,8.464,8.464,0,0,0,.2,3.464c.611,2.689,2.281,5.745,4.93,9.045a18.3,18.3,0,0,1-4.645,3.953,8,8,0,0,1-3.1,1.059,6.519,6.519,0,0,1-3.1-.407A6.055,6.055,0,0,1,332.427,473a6.74,6.74,0,0,1,.367-3.178c.122-.408.326-.815.53-1.3.285-.652.611-1.345.937-2.038l.041-.081c2.811-6.071,5.826-12.264,8.963-18.294l.122-.245c.326-.611.652-1.263.978-1.874a8.944,8.944,0,0,1,1.141-1.793,4.278,4.278,0,0,1,6.519,0,9.017,9.017,0,0,1,1.141,1.793c.326.611.652,1.263.978,1.874l.123.245q4.634,9.082,8.923,18.335v.041c.326.653.611,1.386.937,2.038.2.488.407.9.53,1.3a6.886,6.886,0,0,1,.284,3.137Z" transform="translate(-116.201 3535.076)" fill="#8989a2"/>
    <path id="sky-4" d="M23.486.724A.676.676,0,0,0,22.728,0h-2.67a1.636,1.636,0,0,0-1.814,1.824V24.693a.683.683,0,0,0,.764.726h2.664a1.636,1.636,0,0,0,1.814-1.826V.724ZM54,8.438c0-.429-.317-.641-.749-.641h-3.24a1.107,1.107,0,0,0-1.177.755L44.266,18.69,37.9,8.658A1.721,1.721,0,0,0,36.143,7.8h-3.85a2.025,2.025,0,0,0-1.7.722L23.809,15.8l6.079,8.866a1.329,1.329,0,0,0,1.176.748H34.69c.543,0,.859-.218.859-.674a1.193,1.193,0,0,0-.316-.715l-5.344-7.912,4.053-4.366,8.011,11.842-3.536,7.481a1.763,1.763,0,0,0-.216.647c0,.433.318.641.751.641h3.215a1.1,1.1,0,0,0,1.176-.752L53.788,9.086A1.635,1.635,0,0,0,54,8.438M6.523,13.893c-1.065-.24-1.4-.541-1.4-1.078,0-.418.331-.751,1.291-.751h7.773a1.632,1.632,0,0,0,1.819-1.813V8.558a.678.678,0,0,0-.723-.761h-9.1C2.126,7.8,0,10.149,0,13.14c0,2.664,1.636,4.286,4.91,5.014l5.224,1.169c1.062.235,1.392.54,1.392,1.084,0,.412-.329.745-1.286.745h-8.1A1.63,1.63,0,0,0,.316,22.965v1.69a.679.679,0,0,0,.719.764H9.924c4.8,0,6.731-2.35,6.731-5.133,0-2.876-1.657-4.5-4.908-5.223Z" transform="translate(456 3983.639)" fill="#8989a2"/>
  </g>
</svg>
